<?xml version="1.0" encoding="utf-8"?>
<!-- Generator: Adobe Illustrator 20.0.0, SVG Export Plug-In . SVG Version: 6.00 Build 0)  -->
<svg version="1.1"
	 id="Layer_2" inkscape:version="1.0.2-2 (e86c870879, 2021-01-15)" sodipodi:docname="logo.svg" xmlns:cc="http://creativecommons.org/ns#" xmlns:dc="http://purl.org/dc/elements/1.1/" xmlns:inkscape="http://www.inkscape.org/namespaces/inkscape" xmlns:rdf="http://www.w3.org/1999/02/22-rdf-syntax-ns#" xmlns:sodipodi="http://sodipodi.sourceforge.net/DTD/sodipodi-0.dtd" xmlns:svg="http://www.w3.org/2000/svg"
	 xmlns="http://www.w3.org/2000/svg" xmlns:xlink="http://www.w3.org/1999/xlink" x="0px" y="0px" viewBox="0 0 125.7 37.9"
	 style="enable-background:new 0 0 125.7 37.9;" xml:space="preserve">
<style type="text/css">
	.st0{fill:#F1F1F8;}
	.st1{fill:#F0AB08;}
	.st2{opacity:0.21;fill:#E74011;enable-background:new    ;}
</style>
<sodipodi:namedview  bordercolor="#666666" borderopacity="1" gridtolerance="10" guidetolerance="10" id="namedview132" inkscape:current-layer="text323" inkscape:cx="86.088627" inkscape:cy="8.8134196" inkscape:pageopacity="0" inkscape:pageshadow="2" inkscape:window-height="871" inkscape:window-maximized="1" inkscape:window-width="1502" inkscape:window-x="-9" inkscape:window-y="-9" inkscape:zoom="6.3338443" objecttolerance="10" pagecolor="#ffffff" showgrid="false">
	</sodipodi:namedview>
<title  id="title47">logo</title>
<g>
	<path class="st0" d="M24.5,7.9c0.4,0,0.8,0,1,0.1c0.3,0,0.5,0.1,0.8,0.3c0.3,0.2,0.5,0.4,0.6,0.8s0.2,0.9,0.2,1.6
		c0,0.6-0.1,1.1-0.2,1.6c-0.1,0.3-0.3,0.7-0.6,0.8c-0.3,0.2-0.6,0.3-0.8,0.3c-0.3,0-0.6,0.1-1,0.1H15v3.1h6c0.5,0,0.9,0,1,0.1
		c0.3,0,0.5,0.1,0.8,0.3c0.5,0.3,0.8,1.1,0.8,2.4c0,1.4-0.3,2.3-1.1,2.5c-0.3,0.1-0.9,0.2-1.6,0.2H15v5.8c0,0.5,0,0.9-0.1,1
		c0,0.3-0.1,0.5-0.3,0.8c-0.3,0.5-1,0.8-2.4,0.8c-1.4,0-2.3-0.3-2.5-1.1c-0.1-0.3-0.2-0.9-0.2-1.6v-17c0-1,0.2-1.7,0.6-2.1
		c0.3-0.3,1.1-0.5,2.2-0.5H24.5z"/>
	<path class="st0" d="M34.6,25.8h8.3c0.7,0,1.1,0.1,1.5,0.3c0.3,0.2,0.5,0.4,0.6,0.7c0.1,0.3,0.2,0.8,0.2,1.3c0,0.5-0.1,1-0.2,1.3
		c-0.1,0.3-0.3,0.5-0.5,0.7c-0.3,0.2-1,0.3-1.6,0.3h-11c-1.4,0-2.3-0.3-2.5-1.1c-0.1-0.3-0.2-0.9-0.2-1.6V10.5c0-0.4,0-0.8,0.1-1
		c0.1-0.3,0.1-0.5,0.3-0.8c0.3-0.5,1-0.8,2.4-0.8c1.4,0,2.3,0.3,2.5,1.1c0.1,0.3,0.2,0.9,0.2,1.6V25.8z"/>
	<path class="st0" d="M47.2,10.5c0-0.4,0-0.8,0.1-1c0.1-0.3,0.1-0.5,0.3-0.8c0.3-0.5,1-0.8,2.4-0.8c1.4,0,2.3,0.3,2.5,1.1
		c0.1,0.3,0.2,0.9,0.2,1.6v17c0,0.5,0,0.9-0.1,1c0,0.3-0.1,0.5-0.3,0.8c-0.3,0.5-1,0.8-2.4,0.8c-1.4,0-2.3-0.3-2.5-1.1
		c-0.1-0.3-0.2-0.9-0.2-1.6V10.5z"/>
	<path class="st0" d="M68.9,19l6.2,6.8c0.7,0.8,1,1.4,1,1.9c0,0.5-0.4,1.1-1.2,1.8c-0.8,0.7-1.5,1-2,1s-1.1-0.4-1.9-1.2l-5.9-6.7
		l-5.9,6.7c-0.7,0.8-1.4,1.2-1.9,1.2c-0.5,0-1.2-0.3-2-1c-0.8-0.7-1.2-1.3-1.2-1.8s0.3-1.1,1-1.9l6.2-6.8l-6.2-6.8
		c-0.7-0.8-1-1.4-1-1.9c0-0.5,0.4-1.1,1.2-1.9c1-0.7,1.7-1,2.2-1c0.5,0,1.1,0.4,1.9,1.2l5.9,6.7L71,8.5c0.7-0.8,1.4-1.2,1.9-1.2
		s1.2,0.3,2,1s1.2,1.3,1.2,1.9c0,0.6-0.3,1.2-1,1.9L68.9,19z"/>
</g>
<g>
	<g id="Grupo_2_1_" transform="translate(-679.479 -970.819)">
		<path id="Trazado_10_1_" class="st1" d="M804.6,974l-5.4,5.4c-0.3,0.3-0.8,0.5-1.3,0.5h-4.5c-1,0-1.9,0.8-1.9,1.9v4.5
			c0,1,0.8,1.9,1.9,1.9h7.7c1,0,1.9,0.8,1.9,1.9c0,0.5-0.2,1-0.5,1.3l-5.4,5.4c-0.3,0.3-0.8,0.5-1.3,0.5h-2.3c-1,0-1.9,0.8-1.9,1.9
			v2.3c0,0.5-0.2,1-0.5,1.3l-5.4,5.4c-0.7,0.7-1.9,0.7-2.6,0c-0.3-0.3-0.5-0.8-0.5-1.3v-34.1c0-1,0.8-1.9,1.9-1.9l0,0h19
			c1,0,1.9,0.8,1.9,1.9C805.2,973.2,805,973.6,804.6,974z"/>
		<path id="Trazado_11_1_" class="st2" d="M767.6,974l5.4,5.4c0.3,0.3,0.8,0.5,1.3,0.5h6.1c1,0,1.9,0.8,1.9,1.9l0,0v4.5
			c0,1-0.8,1.9-1.9,1.9h-7.7c-1,0-1.9,0.8-1.9,1.9c0,0.5,0.2,1,0.5,1.3l5.4,5.4c0.3,0.3,0.8,0.5,1.3,0.5h2.3c1,0,1.9,0.8,1.9,1.9
			v2.3c0,0.5,0.2,1,0.5,1.3l5.4,5.4c0.7,0.7,1.9,0.7,2.6,0c0.3-0.3,0.5-0.8,0.5-1.3v-34.1c0-1-0.8-1.9-1.9-1.9l0,0H769
			c-1,0-1.9,0.8-1.9,1.9C767.1,973.2,767.3,973.6,767.6,974z"/>
	</g>
</g>
</svg>
